<?xml version="1.0" encoding="UTF-8"?>
<mxfile host="app.diagrams.net" modified="2022-03-24T07:57:48.270Z" agent="Mozilla/5.0 (Windows NT 10.0; Win64; x64) AppleWebKit/537.36 (KHTML, like Gecko) Chrome/99.0.4844.51 Safari/537.36" etag="KMc1E5vus9egApD-T7qc" version="11.9.7" type="device">
    <diagram id="FbOuxCf-MEXdnhUlct31">
        <mxGraphModel dx="1322" dy="773" grid="1" gridSize="10" guides="1" tooltips="1" connect="1" arrows="1" fold="1" page="1" pageScale="1" pageWidth="827" pageHeight="1169" math="0" shadow="0">
            <root>
                <mxCell id="0"/>
                    <mxCell id="1" parent="0"/>
                        <mxCell id="3" value="Hello" style="shape=process" vertex="1" parent="1">
                            <mxGeometry x="80" y="80" width="120" height="60" as="geometry"/>
                        </mxCell>
            </root>
        </mxGraphModel>
    </diagram>
</mxfile>